<?xml version="1.0" standalone="no"?>
<!DOCTYPE svg PUBLIC "-//W3C//DTD SVG 20010904//EN"
 "http://www.w3.org/TR/2001/REC-SVG-20010904/DTD/svg10.dtd">
<svg version="1.0" xmlns="http://www.w3.org/2000/svg"
 width="512.000000pt" height="512.000000pt" viewBox="0 0 512.000000 512.000000"
 preserveAspectRatio="xMidYMid meet">

<g transform="translate(0.000000,512.000000) scale(0.100000,-0.100000)"
fill="#000000" stroke="none">
<path d="M2330 5110 c-494 -48 -950 -230 -1350 -538 -195 -150 -448 -432 -594
-662 -63 -99 -186 -351 -230 -471 -51 -139 -103 -344 -128 -504 -31 -200 -31
-550 0 -750 43 -273 114 -500 237 -750 132 -269 269 -460 489 -681 221 -220
412 -357 681 -489 247 -121 469 -192 745 -237 195 -31 565 -31 760 0 276 45
498 116 745 237 269 132 460 269 681 489 220 221 357 412 489 681 123 250 194
477 237 750 31 200 31 550 0 750 -43 273 -114 500 -237 750 -132 269 -269 460
-489 681 -221 220 -412 357 -681 489 -246 121 -474 193 -740 235 -147 23 -475
34 -615 20z m492 -265 c446 -52 868 -233 1210 -518 l77 -65 -57 -7 c-205 -26
-352 -194 -352 -405 0 -123 46 -245 170 -449 181 -301 239 -473 240 -715 0
-129 -28 -277 -93 -496 -24 -80 -102 -340 -173 -577 -71 -238 -131 -433 -135
-433 -3 0 -189 548 -414 1217 -225 670 -410 1223 -412 1230 -3 7 21 13 74 17
157 13 214 24 238 46 43 41 37 113 -12 145 -24 16 -42 16 -227 4 -253 -17
-634 -17 -882 0 -201 14 -221 11 -251 -28 -18 -24 -16 -97 4 -116 25 -26 52
-33 179 -45 65 -6 122 -15 126 -18 4 -4 86 -225 183 -491 l176 -483 -252 -757
c-139 -416 -254 -749 -257 -741 -3 8 -191 569 -418 1245 -227 677 -412 1231
-411 1232 1 0 62 6 136 13 73 6 146 17 161 25 58 30 63 117 8 158 -25 19 -33
19 -196 8 -222 -15 -622 -26 -622 -18 0 28 176 244 300 367 353 354 833 591
1315 649 50 6 101 13 115 15 68 9 340 4 452 -9z m1849 -1370 c310 -708 235
-1536 -197 -2190 -133 -201 -334 -415 -527 -558 -119 -89 -215 -152 -221 -146
-3 3 677 1975 755 2189 32 88 77 276 94 394 16 109 22 381 10 453 l-7 38 27
-45 c15 -25 45 -85 66 -135z m-3662 -1488 c299 -819 541 -1490 539 -1492 -1
-1 -43 20 -93 48 -423 235 -741 568 -955 998 -289 584 -319 1238 -82 1857 19
51 38 89 42 85 4 -4 251 -678 549 -1496z m1953 -617 c193 -525 350 -961 351
-969 1 -10 -23 -23 -73 -38 -392 -124 -851 -135 -1248 -31 -67 17 -82 24 -77
37 4 9 154 446 335 971 367 1068 350 1021 358 1000 3 -8 162 -445 354 -970z"/>
</g>
</svg>
