<?xml version="1.0" standalone="no"?>
<!DOCTYPE svg PUBLIC "-//W3C//DTD SVG 20010904//EN"
 "http://www.w3.org/TR/2001/REC-SVG-20010904/DTD/svg10.dtd">
<svg version="1.0" xmlns="http://www.w3.org/2000/svg"
 width="512.000000pt" height="512.000000pt" viewBox="0 0 512.000000 512.000000"
 preserveAspectRatio="xMidYMid meet">

<g transform="translate(0.000000,512.000000) scale(0.100000,-0.100000)"
fill="#000000" stroke="none">
<path d="M245 5111 c-90 -22 -172 -90 -215 -176 l-25 -50 0 -510 0 -510 28
-57 c30 -62 83 -115 149 -150 l43 -23 735 0 735 0 43 23 c66 35 119 88 149
150 l28 57 0 510 0 510 -34 63 c-37 69 -79 109 -151 144 l-45 23 -705 2 c-388
1 -718 -2 -735 -6z m1240 -210 c-6 -4 -126 -95 -267 -201 l-258 -192 -257 192
c-142 106 -262 197 -267 201 -6 5 221 9 524 9 303 0 530 -4 525 -9z m-930
-358 c393 -294 362 -273 406 -273 42 0 72 21 471 323 136 103 255 190 263 193
13 5 15 -44 15 -420 0 -469 -1 -481 -59 -510 -26 -14 -111 -16 -691 -16 -733
0 -708 -2 -736 65 -20 48 -21 903 -1 888 6 -6 156 -118 332 -250z"/>
<path d="M3445 5111 c-90 -22 -172 -90 -215 -176 l-25 -50 0 -510 0 -510 28
-57 c30 -62 83 -115 149 -150 l43 -23 735 0 735 0 43 23 c66 35 119 88 149
150 l28 57 0 510 0 510 -34 63 c-37 69 -79 109 -151 144 l-45 23 -705 2 c-388
1 -718 -2 -735 -6z m1400 -217 c65 -30 65 -33 65 -518 0 -480 -1 -491 -59
-520 -26 -14 -111 -16 -691 -16 -733 0 -708 -2 -736 65 -22 53 -21 893 2 940
31 67 9 65 732 65 575 0 658 -2 687 -16z"/>
<path d="M3949 4702 c-45 -24 -59 -37 -84 -87 l-30 -59 0 -190 c0 -178 1 -194
22 -233 48 -88 151 -138 240 -114 46 13 333 156 382 190 16 12 42 46 57 77 22
46 26 63 21 106 -4 30 -18 71 -34 97 -24 38 -46 54 -153 112 -158 86 -266 129
-323 129 -30 0 -63 -10 -98 -28z m390 -328 c3 -3 -274 -144 -284 -144 -3 0 -5
65 -5 145 l0 145 143 -71 c78 -39 144 -73 146 -75z"/>
<path d="M2379 3701 l-29 -29 0 -196 c0 -122 4 -204 11 -220 28 -60 122 -71
170 -20 23 25 24 31 27 217 3 164 1 197 -13 223 -33 61 -117 74 -166 25z"/>
<path d="M2943 3297 c-138 -138 -143 -144 -143 -184 0 -80 75 -131 145 -97 18
8 89 72 157 142 133 135 147 161 123 218 -17 42 -51 64 -99 64 -38 0 -47 -7
-183 -143z"/>
<path d="M1500 3357 c-35 -17 -89 -125 -426 -842 l-287 -610 -237 -240 c-130
-132 -251 -264 -269 -292 -45 -72 -61 -132 -61 -228 0 -166 36 -226 283 -468
155 -151 193 -183 256 -215 73 -36 78 -37 185 -37 96 0 118 3 164 24 l53 24
207 -204 c250 -246 277 -264 402 -264 101 1 160 24 228 93 65 65 87 120 87
222 0 132 -10 148 -255 395 l-210 211 32 31 c18 17 58 42 88 56 112 50 1129
532 1253 593 152 77 167 90 167 146 0 40 -4 45 -207 249 l-206 208 31 68 c40
87 51 140 52 233 0 146 -52 271 -157 376 -160 159 -401 199 -605 100 l-67 -33
-193 194 c-227 229 -245 242 -308 210z m728 -930 l643 -643 -613 -292 -613
-292 -322 322 c-178 178 -323 326 -323 331 0 4 118 256 261 560 144 304 273
576 286 605 14 28 28 52 31 52 4 0 296 -289 650 -643z m199 373 c60 -27 129
-94 160 -159 23 -46 28 -69 28 -131 0 -42 -6 -90 -14 -108 l-14 -34 -213 213
c-117 117 -211 215 -209 218 3 2 26 10 52 17 59 17 152 10 210 -16z m-1155
-1923 c-108 -109 -214 -207 -234 -218 -51 -26 -138 -25 -194 1 -62 30 -362
340 -397 410 -56 112 -34 153 222 413 l195 198 303 -303 303 -303 -198 -198z
m400 -304 c211 -213 222 -230 195 -295 -17 -42 -75 -73 -115 -63 -17 4 -104
83 -229 208 l-203 202 72 72 c40 40 75 73 78 73 3 0 94 -89 202 -197z"/>
<path d="M3019 2741 c-49 -49 -36 -133 25 -166 26 -14 59 -16 223 -13 186 3
192 4 217 27 51 48 40 142 -20 170 -16 7 -98 11 -220 11 l-196 0 -29 -29z"/>
<path d="M3965 1901 c-50 -23 -101 -79 -116 -130 l-12 -39 -30 19 c-43 25
-105 33 -158 19 -36 -10 -66 -33 -158 -124 -65 -63 -121 -128 -132 -151 -24
-52 -24 -109 1 -164 11 -24 20 -45 20 -46 0 -2 -16 -9 -36 -15 -49 -16 -103
-66 -125 -115 -27 -59 -27 -331 0 -390 22 -49 76 -99 125 -115 20 -6 36 -13
36 -15 0 -1 -9 -22 -20 -46 -25 -55 -25 -112 -1 -164 11 -23 67 -88 132 -151
93 -91 122 -114 159 -124 52 -14 105 -9 151 14 18 9 33 16 35 16 1 0 8 -16 14
-36 16 -49 66 -103 115 -125 59 -27 331 -27 390 0 50 23 101 79 116 130 l12
39 30 -19 c47 -28 108 -34 164 -15 38 13 71 38 157 123 59 59 116 124 127 145
24 48 24 111 -1 167 -11 24 -20 45 -20 46 0 2 16 9 36 15 49 16 103 66 125
115 27 59 27 331 0 390 -22 50 -79 101 -129 116 l-38 11 23 46 c28 55 29 113
4 167 -11 23 -67 88 -132 151 -92 91 -122 114 -158 124 -53 14 -115 6 -158
-19 l-30 -19 -12 39 c-15 51 -66 107 -116 130 -33 15 -66 19 -195 19 -129 0
-162 -4 -195 -19z m310 -239 c39 -129 171 -188 291 -127 l49 25 72 -73 73 -72
-25 -49 c-61 -120 -2 -252 127 -291 l43 -12 0 -103 0 -103 -43 -12 c-129 -39
-188 -171 -127 -291 l25 -49 -73 -72 -72 -73 -49 25 c-120 61 -252 2 -291
-127 l-12 -43 -103 0 -103 0 -12 43 c-39 129 -171 188 -291 127 l-49 -25 -72
73 -73 72 25 49 c61 120 2 252 -127 291 l-43 12 0 103 0 103 43 12 c129 39
188 171 127 291 l-25 49 73 72 72 73 49 -25 c62 -31 124 -32 184 -4 49 24 97
83 108 132 3 18 8 36 11 40 3 4 50 6 105 5 l101 -3 12 -43z"/>
<path d="M4081 1379 c-173 -34 -311 -177 -342 -357 -31 -173 73 -367 235 -443
127 -59 245 -59 373 0 160 76 261 264 234 438 -29 188 -171 333 -357 363 -67
11 -82 11 -143 -1z m193 -239 c20 -14 49 -43 64 -64 24 -35 27 -49 27 -116 0
-67 -3 -81 -27 -116 -15 -21 -44 -50 -65 -64 -31 -21 -48 -25 -113 -25 -65 0
-82 4 -113 25 -81 55 -118 161 -88 253 14 41 72 104 115 123 50 23 155 14 200
-16z"/>
</g>
</svg>
