<?xml version="1.0" standalone="no"?>
<!DOCTYPE svg PUBLIC "-//W3C//DTD SVG 20010904//EN"
 "http://www.w3.org/TR/2001/REC-SVG-20010904/DTD/svg10.dtd">
<svg version="1.0" xmlns="http://www.w3.org/2000/svg"
 width="512.000000pt" height="512.000000pt" viewBox="0 0 512.000000 512.000000"
 preserveAspectRatio="xMidYMid meet">

<g transform="translate(0.000000,512.000000) scale(0.100000,-0.100000)"
fill="#000000" stroke="none">
<path d="M1040 5104 c-20 -9 -122 -102 -240 -219 l-205 -205 -160 161 c-88 88
-172 167 -187 175 -15 8 -51 14 -81 14 -68 0 -113 -28 -144 -90 l-23 -44 0
-2336 0 -2336 23 -44 c31 -62 76 -90 144 -90 30 0 66 6 81 14 15 8 99 87 187
175 l160 161 205 -205 c240 -239 262 -252 365 -224 33 9 76 48 247 223 l207
211 213 -212 c117 -117 226 -217 241 -223 40 -14 81 -13 125 5 24 10 110 89
242 220 l205 205 145 -146 c190 -191 207 -204 280 -204 63 0 106 22 144 73 21
28 21 34 24 828 l2 799 823 0 c918 0 892 -2 968 67 22 20 50 55 62 77 l22 41
0 1010 c0 983 -1 1011 -20 1050 -10 21 -36 56 -57 76 -74 72 -36 69 -964 69
l-833 0 -3 374 c-3 362 -4 376 -24 403 -38 51 -81 73 -144 73 -73 0 -90 -13
-280 -204 l-145 -146 -205 205 c-132 131 -218 210 -242 220 -44 18 -85 19
-125 5 -15 -6 -124 -106 -241 -223 l-213 -212 -207 211 c-171 175 -214 214
-247 223 -53 14 -83 13 -125 -5z m1543 -584 c36 -13 88 -13 124 0 15 6 103 86
196 178 l167 167 0 -341 0 -341 -41 -7 c-81 -13 -150 -65 -185 -141 -24 -50
-24 -52 -24 -442 l0 -392 -47 -43 c-113 -102 -123 -115 -123 -164 0 -59 17
-86 101 -158 l68 -58 3 -407 3 -408 30 -49 c35 -56 113 -108 176 -119 l39 -7
0 -766 0 -767 -167 167 c-93 92 -181 172 -196 178 -39 14 -92 13 -130 -4 -18
-8 -124 -107 -237 -220 l-205 -206 -210 209 c-115 116 -223 215 -238 220 -36
14 -98 14 -134 0 -15 -5 -121 -103 -235 -217 l-208 -206 -203 202 c-126 124
-218 207 -240 217 -47 19 -100 19 -140 -1 -18 -9 -105 -89 -194 -177 l-163
-162 0 2305 0 2305 163 -162 c89 -88 176 -168 194 -177 40 -20 93 -20 140 -1
22 10 114 93 240 217 l203 202 203 -201 c111 -110 216 -208 234 -217 40 -20
105 -21 147 -1 17 8 123 107 236 220 l205 205 210 -210 c115 -115 223 -214
238 -220z m2338 -539 l29 -29 0 -966 0 -965 -24 -28 -24 -28 -914 -3 c-502 -1
-923 0 -935 3 -12 3 -32 15 -43 27 -19 21 -20 34 -20 412 0 237 -4 406 -10
428 -8 26 -30 55 -76 96 l-65 59 65 58 c46 40 69 68 76 94 6 21 10 195 10 429
l0 393 25 24 24 25 926 0 927 0 29 -29z"/>
<path d="M1405 4166 c-327 -52 -532 -220 -610 -501 -21 -79 -31 -290 -16 -381
9 -60 8 -78 -4 -108 -19 -45 -19 -132 -1 -182 8 -22 30 -65 49 -98 22 -34 38
-77 42 -105 8 -64 34 -112 76 -139 32 -21 38 -31 49 -85 25 -135 94 -228 209
-287 34 -17 94 -60 134 -97 42 -39 99 -79 137 -97 56 -27 76 -31 150 -31 75 0
93 4 152 32 41 19 94 57 135 96 38 35 101 81 141 102 99 52 152 114 186 216
14 43 26 90 26 103 0 16 8 30 23 37 60 31 83 67 97 156 5 31 25 79 49 119 61
101 73 190 36 264 -9 18 -10 40 -4 75 13 84 10 290 -6 373 -24 120 -93 251
-174 331 -80 79 -152 124 -265 162 -160 55 -420 74 -611 45z m488 -185 c158
-42 285 -128 337 -231 51 -100 62 -149 67 -300 3 -80 3 -142 -1 -139 -3 3 -17
45 -31 94 -33 114 -78 198 -136 256 -82 84 -156 88 -238 15 -69 -62 -131 -80
-266 -80 -137 -1 -209 19 -268 73 -51 46 -78 61 -112 61 -105 0 -227 -152
-272 -339 -9 -38 -20 -68 -25 -65 -11 7 -10 167 2 242 32 194 160 340 353 402
140 45 441 50 590 11z m-612 -471 c169 -122 557 -115 696 13 22 20 23 20 43 2
32 -29 79 -133 96 -214 8 -41 19 -82 24 -91 19 -35 79 -78 119 -85 72 -12 73
-54 7 -162 -19 -32 -40 -80 -47 -108 -6 -27 -13 -56 -15 -62 -2 -7 -15 -13
-29 -13 -45 0 -71 -38 -79 -112 -8 -83 -30 -158 -56 -191 -12 -15 -53 -43 -92
-64 -39 -20 -104 -67 -143 -104 -84 -77 -144 -105 -206 -95 -59 9 -93 30 -169
101 -37 35 -95 77 -128 94 -109 55 -136 99 -153 251 -7 62 -13 79 -34 98 -14
12 -37 22 -49 22 -25 0 -36 17 -36 56 0 13 -23 67 -51 120 -65 124 -64 152 3
169 87 22 127 68 143 165 4 25 16 68 26 95 19 50 74 145 84 145 3 0 24 -13 46
-30z"/>
<path d="M535 1758 c-32 -38 -29 -81 11 -115 21 -19 37 -23 94 -23 57 0 73 4
94 23 40 34 43 77 11 115 -26 31 -29 32 -105 32 -76 0 -79 -1 -105 -32z"/>
<path d="M965 1765 c-35 -34 -33 -78 4 -116 l29 -29 837 0 837 0 29 29 c37 38
39 82 4 116 l-24 25 -846 0 -846 0 -24 -25z"/>
<path d="M539 1421 c-38 -38 -38 -74 0 -112 27 -27 35 -29 101 -29 66 0 74 2
101 29 17 18 29 40 29 56 0 16 -12 38 -29 56 -27 27 -35 29 -101 29 -66 0 -74
-2 -101 -29z"/>
<path d="M966 1425 c-43 -40 -33 -105 21 -133 31 -17 1661 -17 1697 -1 50 23
58 98 14 139 -22 20 -32 20 -863 20 l-842 0 -27 -25z"/>
<path d="M539 1081 c-17 -18 -29 -40 -29 -56 0 -16 12 -38 29 -56 27 -27 35
-29 101 -29 66 0 74 2 101 29 17 18 29 40 29 56 0 16 -12 38 -29 56 -27 27
-35 29 -101 29 -66 0 -74 -2 -101 -29z"/>
<path d="M985 1098 c-51 -29 -61 -93 -20 -133 l24 -25 844 0 844 0 27 26 c35
36 34 77 -3 115 l-29 29 -834 0 c-608 -1 -838 -4 -853 -12z"/>
<path d="M3962 3825 c-12 -9 -25 -30 -30 -46 -6 -26 -16 -33 -60 -48 -260 -88
-367 -401 -217 -636 52 -81 141 -149 233 -176 l42 -12 0 -249 c0 -279 3 -271
-72 -215 -51 38 -95 119 -104 191 -10 82 -74 121 -132 80 -36 -25 -43 -57 -32
-131 23 -140 109 -258 233 -317 40 -19 79 -36 88 -39 9 -3 19 -19 22 -37 5
-24 15 -34 44 -46 33 -14 40 -14 69 -1 22 11 36 27 44 51 6 20 17 36 24 36 8
0 45 16 83 35 211 105 297 348 199 561 -46 101 -167 204 -269 229 l-27 7 0
249 c0 206 2 249 14 249 24 0 113 -88 129 -129 9 -21 19 -62 23 -89 10 -80 62
-118 120 -90 42 20 56 53 48 118 -19 165 -147 324 -292 363 -36 9 -44 17 -49
40 -11 56 -83 85 -131 52z m-32 -500 c0 -129 -3 -235 -7 -235 -21 0 -93 54
-116 87 -37 55 -49 90 -49 155 0 74 29 135 89 188 84 73 83 75 83 -195z m221
-468 c120 -81 149 -240 66 -360 -20 -29 -93 -87 -109 -87 -4 0 -8 106 -8 235
0 129 4 235 9 235 4 0 23 -10 42 -23z"/>
</g>
</svg>
