<?xml version="1.0" standalone="no"?>
<!DOCTYPE svg PUBLIC "-//W3C//DTD SVG 20010904//EN"
 "http://www.w3.org/TR/2001/REC-SVG-20010904/DTD/svg10.dtd">
<svg version="1.0" xmlns="http://www.w3.org/2000/svg"
 width="512.000000pt" height="512.000000pt" viewBox="0 0 512.000000 512.000000"
 preserveAspectRatio="xMidYMid meet">

<g transform="translate(0.000000,512.000000) scale(0.100000,-0.100000)"
fill="#000000" stroke="none">
<path d="M2309 2603 c-141 -846 -256 -1539 -255 -1540 4 -4 498 -85 501 -82 2
2 116 684 254 1514 138 831 254 1522 256 1536 l6 26 -228 37 c-125 21 -239 40
-253 43 l-25 4 -256 -1538z"/>
<path d="M712 3277 l-712 -712 717 -718 718 -717 177 177 178 178 -537 537
-538 538 538 538 537 537 -178 178 c-97 97 -179 177 -182 177 -3 0 -326 -321
-718 -713z"/>
<path d="M3507 3813 l-177 -178 537 -537 538 -538 -538 -538 -537 -537 178
-178 177 -177 718 717 717 718 -712 712 c-392 392 -715 713 -718 713 -3 0 -85
-80 -183 -177z"/>
</g>
</svg>
