<?xml version="1.0" standalone="no"?>
<!DOCTYPE svg PUBLIC "-//W3C//DTD SVG 20010904//EN"
 "http://www.w3.org/TR/2001/REC-SVG-20010904/DTD/svg10.dtd">
<svg version="1.0" xmlns="http://www.w3.org/2000/svg"
 width="512.000000pt" height="512.000000pt" viewBox="0 0 512.000000 512.000000"
 preserveAspectRatio="xMidYMid meet">

<g transform="translate(0.000000,512.000000) scale(0.100000,-0.100000)"
fill="#000000" stroke="none">
<path d="M4070 5109 c-224 -32 -453 -171 -593 -359 -57 -76 -122 -210 -147
-305 -31 -115 -37 -276 -15 -397 15 -86 15 -98 2 -124 -9 -16 -486 -499 -1060
-1073 l-1045 -1044 -64 6 c-34 4 -101 11 -148 17 -324 37 -662 -128 -851 -417
-96 -147 -142 -307 -142 -493 -1 -265 94 -485 290 -670 356 -337 911 -331
1265 16 202 197 304 483 269 751 -7 54 -15 118 -18 142 l-5 44 1053 1054 c580
580 1064 1059 1077 1064 14 5 49 3 100 -6 143 -28 320 -17 453 26 357 116 607
440 626 809 l5 105 -248 -247 c-156 -154 -259 -249 -276 -253 -20 -5 -102 18
-317 90 -160 53 -300 104 -311 113 -14 12 -53 115 -120 315 -83 251 -97 303
-89 325 5 15 121 138 257 275 l247 247 -70 -1 c-39 -1 -95 -5 -125 -10z m-498
-1536 c32 -32 58 -62 58 -68 0 -5 -450 -460 -1000 -1010 l-1000 -1000 -65 65
-65 65 1002 1002 c552 552 1005 1003 1008 1003 2 0 30 -26 62 -57z m-2317
-2460 c59 -98 108 -182 108 -188 0 -5 -48 -90 -107 -187 l-107 -178 -222 0
-222 0 -108 179 c-59 99 -107 182 -107 186 0 4 48 87 107 186 l108 179 221 0
221 0 108 -177z"/>
<path d="M170 4965 l-133 -134 152 -268 c85 -147 155 -269 156 -271 2 -2 81
-23 176 -48 l174 -44 662 -662 663 -663 115 115 c63 63 115 119 115 125 0 5
-296 307 -659 670 l-659 660 -41 170 -42 170 -226 130 c-125 72 -247 142 -273
157 l-47 27 -133 -134z"/>
<path d="M2997 2132 l-387 -387 70 -71 71 -70 58 29 c245 121 505 -144 375
-383 l-28 -51 527 -527 527 -527 390 390 390 390 -526 526 -527 527 -50 -27
c-72 -37 -174 -41 -245 -11 -150 65 -217 255 -138 396 l27 48 -68 68 c-37 37
-70 68 -73 68 -3 0 -179 -174 -393 -388z m1101 -965 l452 -452 -65 -65 -65
-65 -457 458 -458 457 60 60 c33 33 64 60 70 60 5 0 214 -204 463 -453z"/>
<path d="M4732 407 c-193 -193 -352 -355 -352 -358 0 -13 120 -34 195 -34 228
1 425 140 512 362 24 60 27 81 27 188 -1 79 -6 133 -15 157 l-14 38 -353 -353z"/>
</g>
</svg>
