<?xml version="1.0" standalone="no"?>
<!DOCTYPE svg PUBLIC "-//W3C//DTD SVG 20010904//EN"
 "http://www.w3.org/TR/2001/REC-SVG-20010904/DTD/svg10.dtd">
<svg version="1.0" xmlns="http://www.w3.org/2000/svg"
 width="512.000000pt" height="512.000000pt" viewBox="0 0 512.000000 512.000000"
 preserveAspectRatio="xMidYMid meet">

<g transform="translate(0.000000,512.000000) scale(0.100000,-0.100000)"
fill="#000000" stroke="none">
<path d="M1210 4955 l-105 -105 710 -710 c391 -391 715 -710 720 -710 6 0 61
51 123 113 l112 112 -703 703 c-557 557 -707 702 -727 702 -19 0 -53 -27 -130
-105z"/>
<path d="M4365 4939 c-126 -15 -209 -62 -345 -195 l-95 -93 362 -363 363 -363
76 75 c158 156 216 272 216 434 0 314 -263 544 -577 505z"/>
<path d="M542 4287 c-377 -377 -482 -487 -482 -507 0 -18 31 -55 117 -142
l117 -118 146 145 c153 152 172 163 210 125 37 -37 26 -56 -125 -209 l-144
-147 102 -102 102 -102 146 145 c152 152 171 163 209 125 38 -38 27 -57 -125
-209 l-145 -146 102 -102 102 -102 147 144 c153 151 172 162 209 125 38 -38
27 -57 -125 -210 l-145 -146 105 -104 105 -104 148 147 c82 81 156 147 165
147 24 0 57 -36 57 -62 0 -16 -45 -68 -145 -168 l-145 -145 108 -108 107 -107
495 495 495 495 -715 715 -715 715 -483 -483z"/>
<path d="M3782 4507 c-29 -29 -52 -57 -52 -62 0 -13 702 -715 715 -715 13 0
115 102 115 115 0 13 -702 715 -715 715 -6 0 -34 -24 -63 -53z"/>
<path d="M2180 2905 l-1455 -1455 160 -160 160 -160 1457 1457 1458 1458 -157
157 c-87 87 -160 158 -163 158 -3 0 -660 -655 -1460 -1455z"/>
<path d="M2587 2502 l-1457 -1457 160 -160 160 -160 1458 1458 1457 1457 -160
160 -160 160 -1458 -1458z"/>
<path d="M3542 2657 c-61 -62 -112 -117 -112 -122 0 -6 319 -329 710 -720
l710 -710 105 105 c78 78 105 111 105 130 0 20 -144 169 -703 728 l-702 702
-113 -113z"/>
<path d="M2842 1957 l-492 -492 108 -108 107 -107 145 145 c101 101 152 145
167 145 27 0 63 -33 63 -57 0 -9 -66 -83 -147 -165 l-147 -148 104 -105 104
-105 146 145 c154 152 178 166 213 127 35 -38 22 -59 -128 -211 l-144 -147
102 -102 102 -102 146 145 c153 152 177 166 212 127 35 -39 23 -60 -128 -211
l-145 -146 102 -102 102 -102 147 144 c154 152 177 166 212 127 35 -39 23 -60
-128 -212 l-145 -146 118 -117 c87 -87 124 -117 142 -117 20 0 129 104 508
483 l482 482 -713 713 c-391 391 -714 712 -717 712 -3 0 -227 -222 -498 -493z"/>
<path d="M587 1312 c-31 -32 -57 -62 -57 -67 0 -13 702 -715 715 -715 13 0
115 102 115 115 0 6 -161 171 -358 368 l-357 357 -58 -58z"/>
<path d="M315 694 c-76 -246 -138 -456 -138 -467 3 -28 27 -50 55 -49 21 0
896 269 908 279 4 4 -671 683 -680 683 -3 0 -68 -201 -145 -446z"/>
</g>
</svg>
